<?xml version="1.0" encoding="UTF-8"?>
<svg xmlns="http://www.w3.org/2000/svg" xmlns:xlink="http://www.w3.org/1999/xlink" width="940px" height="294px" viewBox="0 0 940 294" version="1.1">
<g id="surface1">
<path style=" stroke:none;fill-rule:nonzero;fill:rgb(0%,0%,0%);fill-opacity:1;" d="M 347.453125 74.417969 L 445.671875 74.417969 L 453.9375 76.257812 L 459.902344 78.554688 L 464.492188 81.308594 L 469.082031 85.445312 L 473.210938 90.039062 L 476.425781 95.550781 L 478.261719 101.523438 L 478.71875 103.820312 L 478.71875 114.382812 L 477.34375 121.273438 L 475.046875 126.789062 L 471.835938 131.382812 L 467.703125 135.515625 L 461.738281 139.191406 L 455.773438 141.488281 L 457.609375 142.40625 L 464.03125 144.703125 L 469.082031 147.460938 L 474.589844 152.511719 L 477.804688 157.105469 L 480.097656 162.160156 L 481.933594 170.429688 L 481.933594 182.832031 L 480.097656 190.179688 L 476.882812 196.613281 L 473.210938 201.207031 L 469.082031 205.339844 L 464.03125 208.554688 L 457.148438 211.773438 L 450.265625 213.609375 L 447.050781 214.070312 L 347.453125 214.070312 Z M 391.972656 105.195312 L 391.972656 128.625 L 425.9375 128.625 L 428.691406 127.246094 L 430.984375 124.949219 L 432.820312 122.195312 L 433.28125 120.355469 L 433.28125 113.464844 L 431.90625 109.789062 L 429.609375 107.492188 L 426.855469 105.65625 L 425.476562 105.195312 Z M 391.972656 157.566406 L 391.972656 181.453125 L 429.148438 181.453125 L 432.820312 179.617188 L 435.578125 175.941406 L 436.492188 173.183594 L 436.492188 165.835938 L 435.117188 162.617188 L 432.363281 159.402344 L 427.773438 157.566406 Z M 391.972656 157.566406 "/>
<path style=" stroke:none;fill-rule:nonzero;fill:rgb(40.000001%,13.333334%,76.078433%);fill-opacity:1;" d="M 736.671875 74.417969 L 788.992188 74.417969 L 808.273438 127.246094 L 817.910156 153.429688 L 824.335938 171.347656 L 833.976562 197.53125 L 839.484375 212.691406 L 839.484375 214.070312 L 792.207031 214.070312 L 790.828125 210.394531 L 786.242188 194.773438 L 737.585938 194.773438 L 731.621094 214.070312 L 685.722656 214.070312 L 687.101562 209.476562 L 697.195312 181.453125 L 705.460938 158.945312 L 714.640625 133.679688 L 722.898438 111.167969 L 732.078125 85.902344 L 736.210938 74.878906 Z M 761.453125 113.464844 L 757.324219 126.789062 L 748.144531 157.566406 L 746.765625 163.078125 L 777.0625 163.078125 L 772.46875 147 L 763.289062 115.761719 L 762.375 113.464844 Z M 761.453125 113.464844 "/>
<path style=" stroke:none;fill-rule:nonzero;fill:rgb(0%,0%,0%);fill-opacity:1;" d="M 102.351562 71.664062 L 113.828125 72.121094 L 121.632812 73.039062 L 131.269531 75.335938 L 139.992188 78.554688 L 145.957031 81.769531 L 150.546875 84.984375 L 155.136719 88.660156 L 158.808594 92.335938 L 163.398438 98.765625 L 167.070312 106.117188 L 169.824219 114.382812 L 171.203125 122.195312 L 171.660156 127.246094 L 171.660156 131.839844 L 128.515625 131.839844 L 127.597656 123.570312 L 125.304688 117.140625 L 122.089844 112.546875 L 118.875 109.789062 L 113.367188 107.035156 L 109.238281 106.117188 L 98.679688 106.117188 L 91.796875 107.953125 L 87.664062 110.710938 L 85.371094 112.546875 L 82.15625 117.601562 L 79.863281 123.113281 L 78.484375 129.542969 L 78.027344 135.054688 L 78.027344 152.972656 L 78.945312 161.699219 L 81.242188 169.050781 L 83.992188 174.101562 L 85.828125 175.941406 L 85.828125 176.859375 L 87.664062 177.777344 L 91.796875 180.535156 L 98.222656 182.371094 L 109.695312 182.371094 L 115.203125 180.992188 L 121.632812 177.777344 L 124.84375 174.5625 L 127.597656 169.96875 L 129.433594 163.539062 L 129.890625 158.023438 L 130.351562 157.566406 L 171.660156 157.566406 L 171.203125 167.210938 L 169.367188 176.859375 L 166.152344 185.585938 L 162.023438 192.9375 L 156.515625 199.367188 L 150.546875 204.421875 L 143.664062 208.554688 L 136.320312 211.773438 L 127.140625 214.527344 L 119.796875 215.90625 L 114.289062 216.367188 L 93.171875 216.367188 L 83.535156 214.988281 L 75.734375 213.148438 L 67.929688 210.394531 L 59.210938 205.800781 L 53.703125 201.664062 L 49.109375 197.53125 L 44.523438 192.019531 L 39.929688 184.667969 L 36.257812 175.941406 L 33.964844 167.671875 L 32.128906 156.1875 L 31.671875 148.835938 L 31.671875 139.648438 L 32.585938 128.625 L 34.882812 117.140625 L 37.636719 108.871094 L 41.308594 101.523438 L 45.898438 94.632812 L 52.324219 87.742188 L 59.210938 82.6875 L 67.929688 78.09375 L 75.734375 75.335938 L 85.371094 73.039062 L 93.171875 72.121094 Z M 102.351562 71.664062 "/>
<path style=" stroke:none;fill-rule:nonzero;fill:rgb(0%,0%,0%);fill-opacity:1;" d="M 553.992188 71.664062 L 565.46875 72.121094 L 574.1875 73.5 L 581.074219 75.335938 L 588.875 78.554688 L 594.84375 82.226562 L 599.433594 85.902344 L 603.5625 90.496094 L 606.777344 95.550781 L 609.070312 101.980469 L 609.992188 107.953125 L 609.992188 112.085938 L 608.613281 119.898438 L 606.320312 125.410156 L 603.5625 130.003906 L 599.433594 134.597656 L 595.761719 137.8125 L 589.796875 141.027344 L 591.171875 141.945312 L 598.515625 145.621094 L 602.1875 148.378906 L 604.941406 150.675781 L 608.613281 155.726562 L 611.828125 162.160156 L 613.664062 169.507812 L 614.121094 176.398438 L 613.203125 182.832031 L 610.90625 190.179688 L 607.234375 196.613281 L 602.1875 202.125 L 598.054688 205.800781 L 593.007812 209.015625 L 586.125 212.230469 L 577.859375 214.527344 L 570.058594 215.90625 L 565.007812 216.367188 L 544.355469 216.367188 L 534.257812 214.988281 L 523.703125 212.230469 L 515.4375 208.554688 L 509.015625 204.421875 L 503.964844 199.828125 L 499.835938 193.855469 L 497.078125 187.882812 L 495.703125 181.914062 L 495.703125 172.265625 L 531.046875 172.265625 L 531.503906 172.726562 L 532.421875 178.238281 L 534.257812 181.914062 L 536.554688 184.210938 L 540.226562 186.507812 L 544.8125 187.882812 L 548.484375 188.34375 L 555.828125 188.34375 L 561.335938 187.425781 L 565.929688 185.585938 L 570.058594 181.914062 L 571.894531 178.238281 L 572.8125 175.023438 L 572.8125 165.835938 L 570.976562 161.242188 L 569.140625 158.945312 L 565.929688 157.105469 L 563.632812 156.1875 L 560.878906 155.726562 L 544.355469 155.269531 L 544.355469 130.460938 L 558.125 130.003906 L 563.171875 128.625 L 566.84375 125.867188 L 569.140625 121.273438 L 569.601562 119.4375 L 569.601562 112.085938 L 567.765625 107.492188 L 564.09375 103.359375 L 559.5 101.0625 L 555.828125 100.144531 L 548.945312 100.144531 L 543.4375 101.523438 L 539.304688 103.820312 L 536.09375 107.492188 L 534.71875 110.710938 L 533.796875 115.304688 L 500.292969 115.304688 L 499.835938 114.84375 L 499.835938 107.953125 L 500.75 101.980469 L 503.046875 96.007812 L 506.257812 90.957031 L 510.390625 86.363281 L 514.523438 82.6875 L 521.867188 78.554688 L 529.667969 75.335938 L 538.847656 73.039062 L 545.734375 72.121094 Z M 553.992188 71.664062 "/>
<path style=" stroke:none;fill-rule:nonzero;fill:rgb(0%,0%,0%);fill-opacity:1;" d="M 179.003906 74.417969 L 230.410156 74.417969 L 233.164062 78.554688 L 240.507812 91.414062 L 247.390625 103.359375 L 254.734375 116.222656 L 257.03125 119.898438 L 257.03125 120.816406 L 258.40625 120.816406 L 259.328125 118.519531 L 263.914062 110.25 L 270.34375 99.226562 L 277.6875 86.363281 L 284.570312 74.417969 L 333.679688 74.417969 L 330.929688 79.472656 L 326.335938 86.363281 L 320.828125 95.089844 L 284.109375 152.511719 L 279.523438 159.863281 L 279.0625 214.070312 L 234.082031 214.070312 L 233.625 158.945312 L 228.117188 150.675781 L 223.066406 142.867188 L 217.101562 133.679688 L 212.050781 125.867188 L 206.085938 116.679688 L 201.035156 108.871094 L 195.070312 99.683594 L 190.019531 91.875 L 184.054688 82.6875 L 179.003906 74.878906 Z M 179.003906 74.417969 "/>
<path style=" stroke:none;fill-rule:nonzero;fill:rgb(40.000001%,13.333334%,76.078433%);fill-opacity:1;" d="M 855.546875 74.417969 L 900.070312 74.417969 L 900.070312 214.070312 L 855.546875 214.070312 Z M 855.546875 74.417969 "/>
</g>
</svg>
