<?xml version="1.0" encoding="UTF-8"?>
<svg xmlns="http://www.w3.org/2000/svg" xmlns:xlink="http://www.w3.org/1999/xlink" width="320px" height="320px" viewBox="0 0 320 320" version="1.1">
<g id="surface1">
<path style=" stroke:none;fill-rule:nonzero;fill:rgb(60.784316%,39.215687%,91.37255%);fill-opacity:1;" d="M 10 87.332031 L 11.667969 88 L 20 92.332031 L 27.667969 96.667969 L 33.332031 99.667969 L 58 113.332031 L 129.667969 153 L 137.332031 157.332031 L 146.667969 162.332031 L 159.667969 169.667969 L 161.332031 169 L 170 164.332031 L 177.667969 160 L 186.332031 155.332031 L 194 151 L 202 146.667969 L 207.332031 143.667969 L 216.332031 138.667969 L 224.332031 134.332031 L 248.332031 121 L 267 110.667969 L 275.667969 106 L 283.332031 101.667969 L 298 93.667969 L 306 89.332031 L 309.332031 87.332031 L 310 87.332031 L 310 160.332031 L 307 162.332031 L 299 166.667969 L 291.332031 171 L 272 181.667969 L 265 185.667969 L 261.332031 187.667969 L 255 191 L 240 199.332031 L 236.332031 201.332031 L 236.332031 271.667969 L 235.332031 272.667969 L 229 276 L 221.332031 280.332031 L 213.332031 284.667969 L 189.332031 298 L 179.667969 303.332031 L 172 307.667969 L 160.332031 314 L 159 313.667969 L 150.332031 309 L 134.667969 300.332031 L 127 296 L 118.332031 291.332031 L 110.667969 287 L 103.332031 283 L 95.667969 278.667969 L 87.667969 274.332031 L 84 272 L 83.667969 270.667969 L 83.667969 201.667969 L 78 198.332031 L 69 193.332031 L 61 189 L 53.332031 184.667969 L 45.332031 180.332031 L 37.667969 176 L 29 171.332031 L 21.332031 167 L 13.332031 162.667969 L 10.332031 161 L 10 160.332031 Z M 10 87.332031 "/>
<path style=" stroke:none;fill-rule:nonzero;fill:rgb(31.37255%,5.098039%,63.529414%);fill-opacity:1;" d="M 159.667969 12.332031 L 161.667969 13 L 171.667969 18.332031 L 177.667969 21.667969 L 187 26.667969 L 202.332031 35 L 217.667969 43.332031 L 233 51.667969 L 239 55 L 247.667969 59.667969 L 255.332031 64 L 266 69.667969 L 273.667969 74 L 280 77.332031 L 286.667969 81 L 288.332031 82 L 288.667969 82.667969 L 283 85.667969 L 275 90.332031 L 265.667969 95.332031 L 258 99.667969 L 248.332031 105 L 240.332031 109.332031 L 232.667969 113.667969 L 228 116.332031 L 226 116 L 216.667969 111 L 209.332031 107 L 200 102 L 194 98.667969 L 184.667969 93.667969 L 178.667969 90.332031 L 170.667969 86 L 163.332031 82 L 160.332031 80.332031 L 159 80.667969 L 149 86 L 143 89.332031 L 128.332031 97.332031 L 120.332031 101.667969 L 110.667969 107 L 102 111.667969 L 94.667969 115.667969 L 93.332031 116.332031 L 91.667969 116 L 83.667969 111.667969 L 49.332031 92.667969 L 40.332031 87.667969 L 31.667969 83 L 31.667969 82 L 37.667969 78.667969 L 47 73.667969 L 52.332031 70.667969 L 61 66 L 68.667969 61.667969 L 76.332031 57.667969 L 82.332031 54.332031 L 91 49.667969 L 105.667969 41.667969 L 114.332031 37 L 129 29 L 137.667969 24.332031 L 143.667969 21 L 152.332031 16.332031 Z M 159.667969 12.332031 "/>
<path style=" stroke:none;fill-rule:nonzero;fill:rgb(31.37255%,5.098039%,63.529414%);fill-opacity:1;" d="M 98 47 L 101 47.667969 L 102.667969 47.667969 L 103 49 L 102.667969 50 L 103.332031 50.332031 L 103.332031 52 L 104 52 L 106.667969 56 L 107.332031 57.667969 L 108 58 L 108.332031 60.332031 L 109.332031 62 L 109.332031 65.332031 L 111.332031 65 L 112.332031 68 L 112.667969 69.667969 L 113.332031 71 L 115 72.667969 L 117 75 L 118.332031 77 L 119 77.332031 L 119.667969 79.332031 L 120.667969 80 L 121.332031 81.667969 L 122.332031 82.667969 L 123 87 L 124 90 L 123.667969 93.332031 L 125 93.332031 L 125 95.332031 L 126 95.332031 L 126.332031 97.332031 L 125 97.667969 L 124 98 L 124 98.667969 L 123 99 L 122.332031 100.667969 L 113 105.667969 L 105.667969 109.667969 L 96 115 L 93.332031 116.332031 L 91.667969 116 L 83.667969 111.667969 L 49.332031 92.667969 L 40.332031 87.667969 L 31.667969 83 L 31.667969 82 L 37.667969 78.667969 L 47 73.667969 L 52.332031 70.667969 L 61 66 L 68.667969 61.667969 L 76.332031 57.667969 L 82.332031 54.332031 L 91 49.667969 L 95 47.332031 L 95.667969 47.667969 L 95 48.667969 L 97.667969 47.332031 Z M 98 47 "/>
<path style=" stroke:none;fill-rule:nonzero;fill:rgb(76.862746%,64.313728%,96.078432%);fill-opacity:1;" d="M 299.667969 92.667969 L 299.667969 93.667969 L 298.332031 94.332031 L 297.667969 95.667969 L 296 96.667969 L 295.332031 96.667969 L 295.332031 97.332031 L 287 102.332031 L 283.332031 105 L 279 107.667969 L 269 114.332031 L 266.332031 116.332031 L 261.667969 119.332031 L 259 121 L 257.667969 121.332031 L 257.667969 122 L 254 124.332031 L 250.332031 127 L 248.332031 128.332031 L 244.667969 130.667969 L 241.332031 132.667969 L 238 135 L 232.667969 138.332031 L 229.332031 140.667969 L 225 143.332031 L 220 146.667969 L 209.332031 153.667969 L 206.332031 155.667969 L 201 159 L 197 161.667969 L 192.332031 164.667969 L 182.667969 171 L 177.332031 174.332031 L 172.667969 177.667969 L 172 178.667969 L 171.332031 184 L 169.667969 202.667969 L 169 210.667969 L 168.667969 213.332031 L 167.667969 225.332031 L 167 231 L 166.667969 235.332031 L 165.332031 240.332031 L 165 242.667969 L 164.332031 242.667969 L 164 243.667969 L 160.332031 243.332031 L 157.667969 243 L 157 244.332031 L 155.332031 243.332031 L 155 241.332031 L 154 239 L 153 231.667969 L 151 211.332031 L 149.332031 192 L 148.332031 179.332031 L 148 178 L 144.332031 175.667969 L 139.332031 172.332031 L 135 169.667969 L 130 166.332031 L 126.332031 164 L 119.667969 159.667969 L 116.667969 157.667969 L 115.667969 157.332031 L 115.667969 156.667969 L 114 156 L 110 153.332031 L 106.332031 151 L 103 148.667969 L 101.667969 148 L 101.667969 147.332031 L 100.332031 147 L 93.667969 142.667969 L 88.667969 139.332031 L 86.332031 137.667969 L 84 136.332031 L 80.667969 134 L 77 131.667969 L 66 124.332031 L 63.667969 123 L 60.332031 120.667969 L 56.667969 118.332031 L 49 113.332031 L 45.332031 111 L 42.667969 109.332031 L 41 108 L 39 107 L 35.667969 104.667969 L 33.667969 103.332031 L 31 101.667969 L 30.332031 101.332031 L 30.332031 100.667969 L 29 100.332031 L 29 99.667969 L 27.667969 99.332031 L 27.667969 98.667969 L 26.332031 98.332031 L 23.332031 96.332031 L 23.332031 95.667969 L 22.667969 95.667969 L 22.667969 94.667969 L 21 94 L 21 93.332031 L 23 94 L 30.332031 98 L 38.667969 102.667969 L 58 113.332031 L 129.667969 153 L 137.332031 157.332031 L 146.667969 162.332031 L 159.667969 169.667969 L 161.332031 169 L 170 164.332031 L 177.667969 160 L 186.332031 155.332031 L 194 151 L 202 146.667969 L 207.332031 143.667969 L 216.332031 138.667969 L 224.332031 134.332031 L 248.332031 121 L 267 110.667969 L 275.667969 106 L 283.332031 101.667969 L 298 93.667969 Z M 299.667969 92.667969 "/>
<path style=" stroke:none;fill-rule:nonzero;fill:rgb(23.137255%,3.529412%,46.27451%);fill-opacity:1;" d="M 159.667969 12.332031 L 160.667969 12.667969 L 160.332031 35 L 160.332031 44.332031 L 160 59.332031 L 160 79.667969 L 158.332031 81 L 149 86 L 143 89.332031 L 128.332031 97.332031 L 123 100.332031 L 122 100 L 123 98.667969 L 124 98.667969 L 124 98 L 125.332031 97 L 126 97 L 126 95.332031 L 125 95.332031 L 124.667969 96 L 124.667969 93.667969 L 123.332031 93.332031 L 123.667969 90 L 122.332031 86 L 122 82.667969 L 120.667969 81.332031 L 120.332031 80 L 119.332031 79.332031 L 119 77.332031 L 117.667969 76.667969 L 115.667969 73.667969 L 114 71.667969 L 112.332031 70.332031 L 112.332031 68.332031 L 111.667969 67.667969 L 111.332031 65 L 109.332031 65.667969 L 109 64.332031 L 109 62 L 108 60.332031 L 108 58 L 107 57.667969 L 107 57 L 106.332031 56.667969 L 105.667969 55 L 104 52.667969 L 104 52 L 103.332031 52 L 102.667969 50.667969 L 102.667969 48 L 98.667969 47.667969 L 97.667969 47.667969 L 95.667969 48.667969 L 95 48.667969 L 95.667969 47 L 102 43.667969 L 109.332031 39.667969 L 118 35 L 127.667969 29.667969 L 137.667969 24.332031 L 143.667969 21 L 152.332031 16.332031 Z M 159.667969 12.332031 "/>
<path style=" stroke:none;fill-rule:nonzero;fill:rgb(31.37255%,5.098039%,63.529414%);fill-opacity:1;" d="M 32.667969 190.332031 L 34.667969 191 L 41 194.332031 L 49 198.667969 L 64.332031 207 L 68 209.332031 L 68.332031 254.667969 L 67 255 L 61.332031 251.667969 L 51.332031 246.332031 L 43.667969 242 L 35 237.332031 L 32.667969 235.667969 Z M 32.667969 190.332031 "/>
<path style=" stroke:none;fill-rule:nonzero;fill:rgb(31.37255%,5.098039%,63.529414%);fill-opacity:1;" d="M 286 190.667969 L 287.332031 191 L 287.332031 234.667969 L 286.332031 235.667969 L 277.332031 240.667969 L 268.667969 245.332031 L 253.667969 253.667969 L 252 254 L 252 209.332031 L 256.667969 206.667969 L 272 198.332031 L 280 194 Z M 286 190.667969 "/>
<path style=" stroke:none;fill-rule:nonzero;fill:rgb(50.196081%,22.352941%,86.274511%);fill-opacity:1;" d="M 84 218 L 84.667969 219 L 85 225 L 85.332031 225 L 85.667969 230.332031 L 86.332031 232.332031 L 86.667969 234.667969 L 87.667969 236.667969 L 88 235 L 89 235.667969 L 89.667969 240.667969 L 91.667969 244.667969 L 93.667969 246 L 95 247 L 95 247.667969 L 96.332031 248.332031 L 98 251 L 99 251.332031 L 99.332031 253 L 101 253.667969 L 103.332031 255 L 103.667969 256.332031 L 105.667969 257 L 106.332031 257.332031 L 106 259 L 106.667969 259.332031 L 106.667969 260 L 107.332031 260 L 108 261.332031 L 109 262 L 109 263.332031 L 110.667969 264 L 111.332031 265 L 113 266 L 114.667969 267.332031 L 114.667969 268 L 116 268.667969 L 116.667969 270.332031 L 118 270.332031 L 118 271.332031 L 119.667969 272 L 120.667969 272.667969 L 120.667969 273.332031 L 122.667969 273.332031 L 123.667969 274.332031 L 124 276 L 127 276.667969 L 127.667969 278.332031 L 128.667969 280.667969 L 129.332031 280.667969 L 130.667969 283 L 131.667969 283.332031 L 131.667969 284 L 133.332031 284 L 134 285.667969 L 134.667969 286 L 134.667969 286.667969 L 135.332031 286.667969 L 135.332031 287.332031 L 137.332031 288 L 137.667969 289.332031 L 138.332031 289.667969 L 139 291.667969 L 140.667969 292.332031 L 143 293 L 143.332031 294.332031 L 143 295 L 144 295 L 144.332031 295.667969 L 146.332031 296.332031 L 149 296.667969 L 151.332031 298 L 152 299 L 154 299.667969 L 156.667969 300 L 156.667969 300.667969 L 157.332031 301 L 157.667969 302.667969 L 158.667969 303.332031 L 158.667969 304.667969 L 159.332031 309 L 158 309.667969 L 158.667969 311 L 159.332031 311.332031 L 159 313 L 157 312.667969 L 119 291.667969 L 91.332031 276.332031 L 84.332031 272.332031 L 83.667969 271.332031 L 83.667969 226.332031 Z M 84 218 "/>
<path style=" stroke:none;fill-rule:nonzero;fill:rgb(50.196081%,22.352941%,86.274511%);fill-opacity:1;" d="M 235.667969 226.667969 L 236 226.667969 L 236.332031 238.332031 L 236.332031 271.667969 L 235.332031 272.667969 L 229 276 L 221.332031 280.332031 L 213.332031 284.667969 L 207.332031 288 L 205.667969 289 L 204.332031 288.332031 L 206 285 L 207 284.667969 L 207.332031 283 L 208 281.667969 L 208.667969 281.667969 L 208.667969 281 L 210.332031 279.332031 L 211.332031 277.667969 L 212 277.667969 L 212.667969 276 L 214.332031 274 L 215 274 L 215.667969 272.667969 L 218.332031 269.332031 L 219 269.332031 L 219.667969 267.332031 L 222 265 L 224 261.332031 L 227 257.332031 L 228.332031 255 L 229 255 L 229.332031 253 L 230 253 L 230.667969 251 L 232.667969 248.667969 L 235 246.667969 L 235.332031 243 Z M 235.667969 226.667969 "/>
<path style=" stroke:none;fill-rule:nonzero;fill:rgb(49.411765%,21.960784%,85.490197%);fill-opacity:1;" d="M 309.667969 113.332031 L 310 113.332031 L 310 160.332031 L 307 162.332031 L 299 166.667969 L 291.332031 171 L 288.332031 172.667969 L 287.332031 172.667969 L 287.667969 171 L 288.667969 169.667969 L 289.332031 169.667969 L 289.332031 169 L 292 168 L 293 167 L 294 166.667969 L 294.332031 165 L 295 165 L 295.667969 163.332031 L 297.667969 161 L 298 160.332031 L 298.667969 160.332031 L 299 159 L 300.332031 158.332031 L 300.667969 157.667969 L 301.332031 157.667969 L 301.332031 157 L 302 157 L 302.667969 155 L 303.667969 154.667969 L 304.332031 153 L 306 151 L 306.667969 150.667969 L 307 150 L 308 150 L 309 150.332031 L 309.332031 142.667969 Z M 309.667969 113.332031 "/>
<path style=" stroke:none;fill-rule:nonzero;fill:rgb(23.921569%,3.921569%,47.450981%);fill-opacity:1;" d="M 286 190.667969 L 287.332031 191 L 287 210.667969 L 286.667969 210.667969 L 286 203.667969 L 286 201.332031 L 285.332031 201 L 285 198.332031 L 284.332031 197.332031 L 283.667969 198.332031 L 280.667969 198.667969 L 278.332031 198.332031 L 275.667969 198.667969 L 268.667969 201 L 269.332031 199.667969 L 276.332031 196 L 283.667969 192 Z M 286 190.667969 "/>
<path style=" stroke:none;fill-rule:nonzero;fill:rgb(23.921569%,3.921569%,47.843137%);fill-opacity:1;" d="M 274.667969 75 L 276.332031 75.332031 L 283.667969 79.332031 L 288 81.667969 L 288.667969 82.667969 L 283 85.667969 L 280.667969 87 L 279.667969 87 L 280 84.332031 L 280 81.667969 L 278.667969 81.667969 L 278.332031 80.667969 L 278 79 L 277.332031 79 L 277 76.667969 L 275.332031 76 L 274.667969 75.667969 Z M 274.667969 75 "/>
<path style=" stroke:none;fill-rule:nonzero;fill:rgb(23.921569%,3.921569%,47.843137%);fill-opacity:1;" d="M 32.667969 190.332031 L 34.667969 191 L 41 194.332031 L 49 198.667969 L 54.332031 201.667969 L 54.667969 202.332031 L 53 202.332031 L 53 201.667969 L 52 202 L 51.332031 201.332031 L 49.667969 201 L 47.332031 200 L 43.332031 198.332031 L 43.332031 197.667969 L 40 197 L 37.332031 196.332031 L 35 196 L 33 195.667969 Z M 32.667969 190.332031 "/>
<path style=" stroke:none;fill-rule:nonzero;fill:rgb(45.882353%,18.431373%,81.568629%);fill-opacity:1;" d="M 10 113 L 10.332031 113 L 11 152.667969 L 11 156.667969 L 10.332031 158.667969 L 10 158.667969 Z M 10 113 "/>
</g>
</svg>
